                       =!DK GROUP HD BLURAY RELEAESEES!=
 
===================================================================================

      	
Fantastic 4 Rise Of The Silver Surfer(2005)BRRip[Hindi-Eng-Tamil]6CH.AC3 By !!!dip 


===================================================================================

Storyline:

With Von Doom back in his homeland of Latveria the fantastic four have new troubles when Galactus has decided that Earth is his next target. When his henchman, The Silver Surfer, is sent to Earth he discovers that he's getting more than he bargained for when he encounters the Fantastic Four. But that's not all when Dr. Doom decides that after two years in the homeland he is ready to return. Written by Gharrett Favinger  

Cast:


Ioan Gruffudd..............Mr. Fantastic / Reed Richards
Jessica Alba...............Invisible Woman / Susan Storm
Chris Evans................Human Torch / Johnny Storm
Michael Chiklis............The Thing / Ben Grimm
Julian McMahon.............Dr. Doom / Victor Von Doom
Kerry Washington...........Alicia Masters
Andre Braugher.............General Hager
Laurence Fishburne.........The Silver Surfer (voice)
Doug Jones.................The Silver Surfer
Beau Garrett...............Captain Raye
Brian Posehn...............Wedding Minister
Zach Grenier...............Mr. Sherman / Rafke
Dawn Chubai................Anchorwoman
Chris Gailus...............Anchorman
Kevin McNulty..............Baxter Building Doorman


Directors :Tim Story
Writers :Don Payne (screenplay), Mark Frost (screenplay)
Stars:Ioan Gruffudd, Jessica Alba and Chris Evans
Genre: Action | Adventure | Fantasy
Language:[English-Hindi-Tamil]6CH.AC3
Format :Color, Dubbed,Widescreen
Encoder:Deep Shikha





Video Specifications:



Video
ID : 1
Format : AVC
Format/Info : Advanced Video Codec
Format profile : Main@L3.1
Format settings, CABAC : Yes
Format settings, ReFrames : 4 frames
Format settings, GOP : M=3, N=32
Codec ID : V_MPEG4/ISO/AVC
Duration : 1h 28mn
Width : 1 280 pixels
Height : 536 pixels
Display aspect ratio : 2.35:1
Frame rate mode : Variable
Frame rate : 25.000 fps
Color space : YUV
Chroma subsampling : 4:2:0
Bit depth : 8 bits
Team : DK Group HD Bluray Releases




Audio Specifications:


Audio
ID : 1
Format : AAC
Format/Info : Advanced Audio Codec
Format profile : LC
Codec ID : A_AAC
Duration : 1h 28mn
Channel(s) : 6 channels
Channel positions : Front: L C R, Side: L R, LFE
Sampling rate : 48.0 KHz
Compression mode : Lossy
Language : English


Audio
ID : 2
Format : AC-3
Format/Info : Audio Coding 3
Mode extension : CM (complete main)
Muxing mode : Header stripping
Codec ID : A_AC3
Duration : 1h 27mn
Bit rate mode : Constant
Bit rate : 384 Kbps
Channel(s) : 6 channels
Channel positions : Front: L C R, Side: L R, LFE
Sampling rate : 48.0 KHz
Bit depth : 16 bits
Compression mode : Lossy
Stream size : 242 MiB (100%)
Title : !!!dip
Language : Hindi


Audio
ID : 3
Format : AC-3
Format/Info : Audio Coding 3
Mode extension : CM (complete main)
Muxing mode : Header stripping
Codec ID : A_AC3
Duration : 1h 27mn
Bit rate mode : Constant
Bit rate : 384 Kbps
Channel(s) : 6 channels
Channel positions : Front: L C R, Side: L R, LFE
Sampling rate : 48.0 KHz
Bit depth : 16 bits
Compression mode : Lossy
Stream size : 242 MiB (100%)
Title : !!!dip
Language : Tamil



SAMPLE IMAGE:
  
http://imagestorage.org/images/50122648724944500168.jpg
 
http://imagestorage.org/images/53623002365948012109.jpg
 
http://imagestorage.org/images/90042399518909707885.jpg
 
http://imagestorage.org/images/31118398303444711734.jpg
 
http://imagestorage.org/images/34053127652586613348.jpg
 
http://imagestorage.org/images/11987027298009917184.jpg


VIDEO SAMPLE IS AVAILABLE

					